<svg width="192" height="192" viewBox="0 0 192 192" fill="none" xmlns="http://www.w3.org/2000/svg">
<path d="M0 60C0 26.8629 26.8629 0 60 0H132C165.137 0 192 26.8629 192 60V132C192 165.137 165.137 192 132 192H60C26.8629 192 0 165.137 0 132V60Z" fill="#B38CFC"/>
<path d="M96.0003 52C91.0598 52 86.1226 57.0807 86.1226 68.9154C86.1226 85.7482 91.4729 99.5304 96.0003 108.542C100.528 99.5304 105.877 85.7493 105.877 68.9154C105.877 57.0807 100.939 52 96.0003 52Z" fill="#000"/>
<path d="M46.9655 136.9C49.4353 141.179 56.3052 142.914 66.5538 136.997C81.1327 128.58 90.392 117.055 95.9327 108.629C85.8654 109.213 71.2546 111.472 56.6759 119.89C46.4272 125.806 44.4969 132.624 46.9655 136.9Z" fill="#000"/>
<path d="M145.035 136.9C142.566 141.179 135.695 142.914 125.448 136.997C110.869 128.58 101.61 117.055 96.0674 108.629C106.136 109.213 120.746 111.472 135.326 119.89C145.572 125.806 147.504 132.624 145.035 136.9Z" fill="#000"/>
</svg>
